<mxfile host="app.diagrams.net" modified="2021-08-10T06:58:37.088Z" agent="5.0 (Windows NT 10.0; Win64; x64) AppleWebKit/537.36 (KHTML, like Gecko) Chrome/92.0.4515.131 Safari/537.36" etag="x8vYyQ_Ma8S3tPa04Ll8" version="14.8.5" type="github">
  <diagram id="-Q8Mwh0dZwQf8Db3CPsu" name="Page-1">
    <mxGraphModel dx="1038" dy="547" grid="1" gridSize="10" guides="1" tooltips="1" connect="1" arrows="1" fold="1" page="1" pageScale="1" pageWidth="827" pageHeight="1169" math="0" shadow="0">
      <root>
        <mxCell id="0" />
        <mxCell id="1" parent="0" />
        <mxCell id="I2cCyIHyRf5JfS3AsA_S-3" value="共享" style="shape=umlLifeline;perimeter=lifelinePerimeter;whiteSpace=wrap;html=1;container=1;collapsible=0;recursiveResize=0;outlineConnect=0;" parent="1" vertex="1">
          <mxGeometry x="270" y="50" width="100" height="500" as="geometry" />
        </mxCell>
        <mxCell id="I2cCyIHyRf5JfS3AsA_S-5" value="费控" style="shape=umlLifeline;perimeter=lifelinePerimeter;whiteSpace=wrap;html=1;container=1;collapsible=0;recursiveResize=0;outlineConnect=0;" parent="1" vertex="1">
          <mxGeometry x="80" y="50" width="100" height="300" as="geometry" />
        </mxCell>
        <mxCell id="I2cCyIHyRf5JfS3AsA_S-6" value="" style="html=1;points=[];perimeter=orthogonalPerimeter;" parent="I2cCyIHyRf5JfS3AsA_S-5" vertex="1">
          <mxGeometry x="45" y="90" width="10" height="120" as="geometry" />
        </mxCell>
        <mxCell id="I2cCyIHyRf5JfS3AsA_S-7" value="核算" style="shape=umlLifeline;perimeter=lifelinePerimeter;whiteSpace=wrap;html=1;container=1;collapsible=0;recursiveResize=0;outlineConnect=0;" parent="1" vertex="1">
          <mxGeometry x="470" y="50" width="100" height="500" as="geometry" />
        </mxCell>
        <mxCell id="I2cCyIHyRf5JfS3AsA_S-8" value="" style="html=1;points=[];perimeter=orthogonalPerimeter;" parent="I2cCyIHyRf5JfS3AsA_S-7" vertex="1">
          <mxGeometry x="45" y="330" width="10" height="120" as="geometry" />
        </mxCell>
        <mxCell id="I2cCyIHyRf5JfS3AsA_S-9" value="" style="html=1;points=[];perimeter=orthogonalPerimeter;" parent="1" vertex="1">
          <mxGeometry x="315" y="260" width="10" height="120" as="geometry" />
        </mxCell>
        <mxCell id="I2cCyIHyRf5JfS3AsA_S-20" value="" style="strokeWidth=2;html=1;shape=mxgraph.flowchart.annotation_1;align=left;pointerEvents=1;direction=west;shadow=0;dashed=1;dashPattern=1 1;connectable=1;snapToPoint=0;" parent="1" vertex="1">
          <mxGeometry x="140" y="150" width="30" height="100" as="geometry" />
        </mxCell>
      </root>
    </mxGraphModel>
  </diagram>
</mxfile>
